<svg width="205" height="40" viewBox="0 0 205 40" fill="none" xmlns="http://www.w3.org/2000/svg">
<path d="M46.0069 19.2997C48.0899 16.5426 50.173 13.8601 52.256 11.252C53.5207 9.61268 55.9013 9.24011 57.5379 10.3578C59.0258 11.3265 59.3234 12.8168 58.2075 14.2326C55.7525 17.4368 53.2231 20.5664 50.7681 23.7706C50.6193 23.9942 50.3961 24.2177 50.2473 24.5158C51.4376 26.0806 52.7023 27.5709 53.8926 29.1357C55.4549 31.1476 57.0172 33.1595 58.6538 35.097C59.3978 36.0657 59.8441 37.0344 59.249 38.2266C58.6538 39.3443 57.0916 40.164 55.7525 39.9405C54.6366 39.7914 53.6695 39.2698 52.9999 38.3756C50.6937 35.4695 48.3875 32.5634 46.0813 29.5828C43.7751 32.5634 41.4689 35.4695 39.2371 38.3756C37.898 40.0895 35.815 40.4621 34.0295 39.3443C32.5416 38.3756 32.2441 36.8108 33.36 35.395C36.0381 32.0418 38.6419 28.6141 41.3201 25.2609C41.4689 25.0374 41.6921 24.8138 41.9152 24.5158C40.4274 22.6529 39.0139 20.79 37.526 18.9271C36.3357 17.3623 35.071 15.7975 33.8807 14.2326C32.7648 12.8168 33.0624 11.4011 34.5503 10.4324C36.2613 9.31462 38.6419 9.6872 39.8322 11.3265C41.5433 13.562 43.2543 15.7975 44.9654 17.9584C45.263 18.331 45.6349 18.7781 46.0069 19.2997Z" fill="#188CCF"/>
<path d="M150.976 14.8288C152.316 13.0404 153.952 11.8482 155.961 11.103C159.309 9.91077 162.656 9.76174 165.93 11.3266C168.831 12.7424 170.468 14.9778 170.393 18.4055C170.319 24.8139 170.319 31.2967 170.393 37.705C170.393 39.2698 169.054 40.0895 167.789 39.6424C166.971 39.3444 166.525 38.7482 166.525 37.705C166.525 34.8734 166.525 32.0419 166.525 29.2103C166.525 25.559 166.525 21.9078 166.525 18.331C166.525 15.4249 164.962 13.6365 162.061 13.264C157.969 12.8169 154.622 14.0836 152.39 17.7349C152.092 18.182 151.944 18.7781 151.944 19.2997C151.944 25.41 151.944 31.5202 151.944 37.6305C151.944 39.1208 150.828 40.015 149.489 39.6424C148.745 39.4189 148.224 38.8973 148.149 38.0776C148.149 37.705 148.149 37.407 148.149 37.0344C148.149 30.8496 148.149 24.6648 148.149 18.4055C148.149 15.0523 146.364 13.264 143.016 13.1149C139.222 12.9659 136.098 14.2327 133.866 17.3623C133.568 17.7349 133.42 18.2565 133.42 18.7781C133.42 25.1119 133.42 31.3712 133.42 37.705C133.42 39.0463 132.304 39.9405 130.965 39.5679C130.072 39.3444 129.625 38.7482 129.625 37.705C129.625 36.0657 129.625 34.5009 129.625 32.8615C129.625 26.1551 129.625 19.3742 129.625 12.6678C129.625 11.3266 130.146 10.6559 131.113 10.4324C132.229 10.2088 133.271 11.0285 133.345 12.1462C133.345 12.6678 133.345 13.264 133.345 13.9346C135.056 12.0717 137.065 11.0285 139.297 10.3579C141.528 9.76174 143.76 9.83626 145.918 10.4324C148.224 11.4756 149.861 12.8169 150.976 14.8288Z" fill="#188CCF"/>
<path d="M98.7521 14.2324C97.7106 14.2324 96.8179 14.2324 95.9251 14.2324C94.8092 14.2324 94.2885 13.7108 94.2885 12.6676C94.2885 11.6989 94.8092 11.1773 95.8507 11.1773C96.7435 11.1773 97.6362 11.1773 98.6777 11.1773C98.6777 10.8047 98.6777 10.5066 98.6777 10.2086C98.6777 8.27119 98.6777 6.33379 98.6777 4.4709C98.6777 3.12962 99.3473 2.45898 100.612 2.45898C101.877 2.45898 102.472 3.20414 102.472 4.54542C102.472 6.48282 102.472 8.42022 102.472 10.2831C102.472 10.5812 102.472 10.8792 102.546 11.2518C104.108 11.2518 105.671 11.2518 107.159 11.2518C108.349 11.2518 109.018 12.2205 108.572 13.3382C108.349 14.0089 107.754 14.2324 107.084 14.2324C105.82 14.2324 104.555 14.2324 103.216 14.2324C102.621 14.2324 102.472 14.3815 102.472 14.9776C102.472 21.3859 102.472 27.8687 102.472 34.2771C102.472 35.9164 103.29 36.7361 104.927 36.7361C105.596 36.7361 106.34 36.7361 107.01 36.7361C108.051 36.8106 108.795 37.4812 108.795 38.3009C108.795 39.1206 107.977 39.7912 106.935 39.7912C105.448 39.7912 103.96 39.8657 102.546 39.5677C100.24 39.1206 98.6777 37.0341 98.6777 34.6496C98.6777 28.1668 98.6777 21.684 98.6777 15.2756C98.7521 14.9776 98.7521 14.6795 98.7521 14.2324Z" fill="#188CCF"/>
<path d="M116.16 24.8884C116.16 20.641 116.235 16.4682 116.16 12.2208C116.086 10.4324 118.02 9.8363 119.136 10.5069C119.806 10.8795 119.954 11.4011 119.954 12.0718C119.954 16.6917 119.954 21.3117 119.954 25.9316C119.954 29.8809 119.954 33.9048 119.954 37.8541C119.954 39.3444 118.466 40.2386 117.127 39.568C116.383 39.1954 116.16 38.5993 116.16 37.7796C116.16 33.5322 116.16 29.2103 116.16 24.8884Z" fill="#188CCF"/>
<path d="M118.02 5.51414C116.309 5.51414 115.119 4.39641 115.119 2.83159C115.119 1.19225 116.383 0 118.02 0C119.731 0 120.921 1.19225 120.921 2.83159C120.996 4.39641 119.731 5.51414 118.02 5.51414Z" fill="#188CCF"/>
<path d="M91.1639 35.6924C87.7418 28.0173 84.3941 20.3422 80.972 12.5926C80.1536 10.6552 78.5914 9.83555 76.5083 9.68652C74.4253 9.76104 72.9374 10.6552 72.0447 12.6671C68.6226 20.4167 65.2005 28.1663 61.8528 35.9159C61.2576 37.3317 61.6296 38.524 62.8943 39.3437C64.8285 40.6104 67.4323 39.8653 68.3994 37.7043C69.2921 35.6924 70.1849 33.6805 71.0776 31.5941C71.3008 31.147 71.4496 30.9234 71.9703 30.9234C75.0205 30.9234 78.0706 30.9234 81.1207 30.9234C81.5671 30.9234 81.7903 31.0724 82.0135 31.5195C82.8318 33.5315 83.7245 35.5434 84.6172 37.5553C85.2124 38.9711 86.3283 39.7908 87.8162 39.8653C90.3456 40.0888 92.2054 38.0024 91.1639 35.6924ZM73.7558 25.4093C74.6485 23.3974 75.5412 21.3854 76.5083 19.2245C77.4754 21.3854 78.2938 23.3228 79.1865 25.4093C77.4011 25.4093 75.69 25.4093 73.7558 25.4093Z" fill="#188CCF"/>
<path d="M198.588 26.0799C200.448 26.0799 202.308 26.0799 204.168 26.0799C204.838 26.0799 205.061 25.8563 204.986 25.1857C204.838 23.9934 204.838 22.8012 204.689 21.609C203.796 16.6164 200.076 10.8787 193.083 10.3571C188.397 9.98454 184.454 11.5494 181.627 15.4242C179.023 19.0009 178.428 23.0993 178.874 27.4212C179.469 33.3824 183.784 40.6104 193.158 39.8652C198.068 39.4927 201.862 37.1827 204.094 32.6372C204.689 31.445 204.466 30.6253 203.573 30.1037C202.457 29.5076 201.341 29.8056 200.671 30.9234C200.374 31.445 200.076 32.0411 199.704 32.5627C197.621 35.7669 194.571 37.0336 190.852 36.7356C187.429 36.4375 185.272 34.3511 183.858 31.3705C183.04 29.7311 182.668 27.9428 182.594 26.0799C182.966 26.0799 183.338 26.0799 183.635 26.0799C188.545 26.0799 193.604 26.0799 198.588 26.0799ZM191.447 13.3377C196.654 13.2632 200.746 17.3616 200.969 22.8757C194.869 22.8757 188.768 22.8757 182.668 22.8757C182.743 17.8087 186.76 13.4123 191.447 13.3377Z" fill="#188CCF"/>
<path d="M32.0209 23.4719C31.5745 17.8087 28.9707 13.5614 23.7632 11.2514C18.7788 9.01593 13.6456 9.09044 8.66126 11.1024C4.42081 12.8162 1.74264 16.0204 0.55234 20.4913C-0.117204 23.1739 -0.191598 25.8564 0.403552 28.6135C1.37067 33.0844 3.97445 36.3631 8.1405 38.375C11.7114 40.0143 15.4311 40.3124 19.2252 39.7163C27.0365 38.5985 32.0953 32.7118 32.0209 24.8132C32.0953 24.3661 32.0953 23.919 32.0209 23.4719ZM25.0279 26.527C24.8791 27.2722 24.8047 28.0174 24.5815 28.7625C23.54 32.1157 21.1594 33.9786 17.6629 34.2767C16.3982 34.4257 15.0591 34.3512 13.7944 34.2021C10.2979 33.6805 8.28929 31.5196 7.39656 28.2409C6.80141 25.9309 6.80141 23.5464 7.47096 21.2365C8.36368 17.8087 10.9675 15.5733 14.5384 15.3497C16.0262 15.2752 17.5141 15.2752 19.002 15.5733C22.5729 16.3184 24.8791 19.2245 25.2511 23.1739C25.2511 23.6209 25.3255 23.9935 25.3255 24.4406C25.1767 24.5896 25.1023 25.9309 25.0279 26.527Z" fill="#188CCF"/>
</svg>
