<svg width="12" height="14" viewBox="0 0 12 14" fill="none" xmlns="http://www.w3.org/2000/svg">
<path d="M10.6562 12.3438V5H1.34375V12.3438H10.6562ZM10.6562 1.65625C11.0104 1.65625 11.3229 1.79167 11.5938 2.0625C11.8646 2.33333 12 2.64583 12 3V12.3438C12 12.6979 11.8646 13.0104 11.5938 13.2812C11.3229 13.5312 11.0104 13.6562 10.6562 13.6562H1.34375C0.96875 13.6562 0.645833 13.5312 0.375 13.2812C0.125 13.0104 0 12.6979 0 12.3438V3C0 2.64583 0.125 2.33333 0.375 2.0625C0.645833 1.79167 0.96875 1.65625 1.34375 1.65625H2V0.34375H3.34375V1.65625H8.65625V0.34375H10V1.65625H10.6562ZM9.34375 6.34375V7.65625H8V6.34375H9.34375ZM6.65625 6.34375V7.65625H5.34375V6.34375H6.65625ZM4 6.34375V7.65625H2.65625V6.34375H4Z" fill="#C3C6C8"/>
</svg>
