<svg width="24" height="26" viewBox="0 0 24 26" fill="none" xmlns="http://www.w3.org/2000/svg">
<path d="M20.7305 22.7305V9.01953H3.26953V22.7305H20.7305ZM16.9805 0.230469H19.5V2.75H20.7305C21.3945 2.75 21.9805 3.00391 22.4883 3.51172C22.9961 4.01953 23.25 4.60547 23.25 5.26953V22.7305C23.25 23.3945 22.9961 23.9805 22.4883 24.4883C21.9805 24.9961 21.3945 25.25 20.7305 25.25H3.26953C2.56641 25.25 1.96094 24.9961 1.45312 24.4883C0.984375 23.9805 0.75 23.3945 0.75 22.7305V5.26953C0.75 4.60547 0.984375 4.01953 1.45312 3.51172C1.96094 3.00391 2.56641 2.75 3.26953 2.75H4.5V0.230469H7.01953V2.75H16.9805V0.230469ZM18.2695 14V20.2695H12V14H18.2695Z" fill="#188CCF"/>
</svg>
