<svg width="24" height="24" viewBox="0 0 24 24" fill="none" xmlns="http://www.w3.org/2000/svg">
<path d="M18.2695 18.2695V13.2305H15.75V18.2695H18.2695ZM13.2305 18.2695V5.73047H10.7695V18.2695H13.2305ZM8.25 18.2695V9.48047H5.73047V18.2695H8.25ZM20.7305 0.75C21.3945 0.75 21.9805 1.00391 22.4883 1.51172C22.9961 2.01953 23.25 2.60547 23.25 3.26953V20.7305C23.25 21.3945 22.9961 21.9805 22.4883 22.4883C21.9805 22.9961 21.3945 23.25 20.7305 23.25H3.26953C2.60547 23.25 2.01953 22.9961 1.51172 22.4883C1.00391 21.9805 0.75 21.3945 0.75 20.7305V3.26953C0.75 2.60547 1.00391 2.01953 1.51172 1.51172C2.01953 1.00391 2.60547 0.75 3.26953 0.75H20.7305Z" fill="#188CCF"/>
</svg>
