<svg width="98" height="20" viewBox="0 0 98 20" fill="none" xmlns="http://www.w3.org/2000/svg">
<path d="M21.9936 9.21106C22.9894 7.8952 23.9852 6.6149 24.981 5.37017C25.5856 4.58777 26.7236 4.40995 27.506 4.9434C28.2173 5.40573 28.3595 6.11701 27.8261 6.79272C26.6525 8.32197 25.4433 9.81565 24.2697 11.3449C24.1986 11.4516 24.0919 11.5583 24.0207 11.7005C24.5898 12.4474 25.1944 13.1586 25.7634 13.9055C26.5102 14.8657 27.2571 15.8259 28.0395 16.7506C28.3951 17.2129 28.6085 17.6753 28.324 18.2443C28.0395 18.7777 27.2926 19.1689 26.6525 19.0622C26.119 18.9911 25.6567 18.7422 25.3366 18.3154C24.2341 16.9284 23.1317 15.5414 22.0292 14.1189C20.9267 15.5414 19.8242 16.9284 18.7573 18.3154C18.1171 19.1334 17.1214 19.3112 16.2678 18.7777C15.5565 18.3154 15.4143 17.5686 15.9478 16.8929C17.2281 15.2925 18.4728 13.6565 19.7531 12.0562C19.8242 11.9495 19.9309 11.8428 20.0376 11.7005C19.3263 10.8114 18.6506 9.92234 17.9393 9.03325C17.3703 8.2864 16.7657 7.53956 16.1967 6.79272C15.6632 6.11701 15.8055 5.4413 16.5168 4.97897C17.3347 4.44551 18.4728 4.62333 19.0418 5.40573C19.8598 6.47265 20.6777 7.53956 21.4957 8.57092C21.638 8.74873 21.8158 8.96212 21.9936 9.21106Z" fill="white"/>
<path d="M72.1741 7.07721C72.8143 6.22367 73.5967 5.65465 74.5569 5.29902C76.1572 4.72999 77.7576 4.65887 79.3224 5.40571C80.7094 6.08142 81.4918 7.14834 81.4563 8.78427C81.4207 11.8428 81.4207 14.9368 81.4563 17.9953C81.4563 18.7421 80.8161 19.1333 80.2115 18.92C79.8203 18.7777 79.6069 18.4932 79.6069 17.9953C79.6069 16.6439 79.6069 15.2925 79.6069 13.941C79.6069 12.1984 79.6069 10.4558 79.6069 8.74871C79.6069 7.36172 78.8601 6.50819 77.4731 6.33037C75.5171 6.11698 73.9167 6.72157 72.8498 8.4642C72.7076 8.67758 72.6364 8.96209 72.6364 9.21104C72.6364 12.1273 72.6364 15.0435 72.6364 17.9597C72.6364 18.671 72.103 19.0978 71.4628 18.92C71.1072 18.8133 70.8582 18.5643 70.8227 18.1731C70.8227 17.9953 70.8227 17.853 70.8227 17.6752C70.8227 14.7234 70.8227 11.7716 70.8227 8.78427C70.8227 7.1839 69.9691 6.33037 68.3688 6.25924C66.555 6.18811 65.0613 6.7927 63.9944 8.28638C63.8522 8.4642 63.781 8.71314 63.781 8.96209C63.781 11.985 63.781 14.9724 63.781 17.9953C63.781 18.6355 63.2476 19.0622 62.6074 18.8844C62.1807 18.7777 61.9673 18.4932 61.9673 17.9953C61.9673 17.2129 61.9673 16.4661 61.9673 15.6837C61.9673 12.4829 61.9673 9.2466 61.9673 6.04586C61.9673 5.40571 62.2162 5.08563 62.6786 4.97894C63.212 4.87225 63.7099 5.26345 63.7455 5.79691C63.7455 6.04586 63.7455 6.33037 63.7455 6.65044C64.5634 5.76135 65.5237 5.26345 66.5906 4.94338C67.6575 4.65887 68.7244 4.69443 69.7558 4.97894C70.8582 5.47683 71.6406 6.11698 72.1741 7.07721Z" fill="white"/>
<path d="M47.2083 6.79266C46.7104 6.79266 46.2836 6.79266 45.8569 6.79266C45.3234 6.79266 45.0745 6.54371 45.0745 6.04582C45.0745 5.58349 45.3234 5.33454 45.8213 5.33454C46.2481 5.33454 46.6748 5.33454 47.1727 5.33454C47.1727 5.15672 47.1727 5.01447 47.1727 4.87221C47.1727 3.94755 47.1727 3.02289 47.1727 2.1338C47.1727 1.49365 47.4928 1.17358 48.0974 1.17358C48.702 1.17358 48.9865 1.52921 48.9865 2.16936C48.9865 3.09402 48.9865 4.01868 48.9865 4.90778C48.9865 5.05003 48.9865 5.19229 49.022 5.37011C49.7689 5.37011 50.5157 5.37011 51.227 5.37011C51.796 5.37011 52.1161 5.83244 51.9027 6.36589C51.796 6.68597 51.5115 6.79266 51.1914 6.79266C50.5869 6.79266 49.9823 6.79266 49.3421 6.79266C49.0576 6.79266 48.9865 6.86379 48.9865 7.1483C48.9865 10.2068 48.9865 13.3008 48.9865 16.3593C48.9865 17.1417 49.3777 17.5329 50.1601 17.5329C50.4802 17.5329 50.8358 17.5329 51.1559 17.5329C51.6538 17.5685 52.0094 17.8886 52.0094 18.2798C52.0094 18.671 51.6182 18.9911 51.1203 18.9911C50.409 18.9911 49.6978 19.0266 49.022 18.8844C47.9196 18.671 47.1727 17.6752 47.1727 16.5372C47.1727 13.4431 47.1727 10.349 47.1727 7.29056C47.2083 7.1483 47.2083 7.00604 47.2083 6.79266Z" fill="white"/>
<path d="M55.5303 11.8784C55.5303 9.85121 55.5659 7.85964 55.5303 5.8325C55.4947 4.97897 56.4194 4.69446 56.9528 5.01453C57.2729 5.19235 57.344 5.4413 57.344 5.76137C57.344 7.96633 57.344 10.1713 57.344 12.3762C57.344 14.2611 57.344 16.1816 57.344 18.0665C57.344 18.7777 56.6328 19.2045 55.9926 18.8844C55.637 18.7066 55.5303 18.4221 55.5303 18.0309C55.5303 16.0038 55.5303 13.9411 55.5303 11.8784Z" fill="white"/>
<path d="M56.4192 2.63172C55.6012 2.63172 55.0322 2.09827 55.0322 1.35143C55.0322 0.569021 55.6368 0 56.4192 0C57.2372 0 57.8062 0.569021 57.8062 1.35143C57.8418 2.09827 57.2372 2.63172 56.4192 2.63172Z" fill="white"/>
<path d="M43.5808 17.0351C41.9449 13.372 40.3445 9.70893 38.7086 6.01029C38.3174 5.08563 37.5705 4.69443 36.5747 4.6233C35.5789 4.65886 34.8677 5.08563 34.4409 6.04585C32.805 9.74449 31.169 13.4431 29.5686 17.1418C29.2841 17.8175 29.462 18.3865 30.0665 18.7777C30.9912 19.3823 32.2359 19.0267 32.6983 17.9953C33.125 17.0351 33.5518 16.0749 33.9786 15.0791C34.0853 14.8657 34.1564 14.759 34.4053 14.759C35.8634 14.759 37.3216 14.759 38.7797 14.759C38.9931 14.759 39.0998 14.8301 39.2064 15.0435C39.5976 16.0037 40.0244 16.9639 40.4512 17.9242C40.7357 18.5999 41.2691 18.9911 41.9804 19.0267C43.1896 19.1333 44.0787 18.1376 43.5808 17.0351ZM35.2589 12.1273C35.6856 11.167 36.1124 10.2068 36.5747 9.17547C37.0371 10.2068 37.4283 11.1315 37.855 12.1273C37.0015 12.1273 36.1835 12.1273 35.2589 12.1273Z" fill="white"/>
<path d="M94.9351 12.4473C95.8242 12.4473 96.7133 12.4473 97.6024 12.4473C97.9224 12.4473 98.0291 12.3406 97.9936 12.0205C97.9224 11.4515 97.9224 10.8825 97.8513 10.3135C97.4246 7.93071 95.6464 5.19229 92.3034 4.94334C90.0628 4.76552 88.1779 5.51236 86.8265 7.36168C85.5818 9.06875 85.2973 11.0248 85.5107 13.0875C85.7952 15.9326 87.8579 19.3823 92.3389 19.0266C94.6861 18.8488 96.4999 17.7463 97.5668 15.5769C97.8513 15.0079 97.7446 14.6167 97.3179 14.3678C96.7844 14.0833 96.2509 14.2255 95.9309 14.759C95.7886 15.0079 95.6464 15.2924 95.4685 15.5414C94.4727 17.0706 93.0146 17.6752 91.2364 17.5329C89.6005 17.3907 88.5691 16.3949 87.8934 14.9723C87.5022 14.1899 87.3244 13.3364 87.2888 12.4473C87.4667 12.4473 87.6445 12.4473 87.7867 12.4473C90.134 12.4473 92.5523 12.4473 94.9351 12.4473ZM91.5209 6.3659C94.0104 6.33033 95.9664 8.28634 96.0731 10.9181C93.1569 10.9181 90.2406 10.9181 87.3244 10.9181C87.36 8.49973 89.2804 6.40146 91.5209 6.3659Z" fill="white"/>
<path d="M15.3075 11.2026C15.0942 8.49978 13.8494 6.47264 11.36 5.37016C8.97719 4.30324 6.52328 4.33881 4.1405 5.29903C2.11336 6.117 0.833067 7.64624 0.264045 9.78007C-0.0560292 11.0604 -0.091593 12.3407 0.192918 13.6565C0.655248 15.7904 1.89998 17.3552 3.89156 18.3154C5.59862 19.0978 7.37681 19.2401 9.19057 18.9555C12.9248 18.4221 15.3431 15.6125 15.3075 11.8428C15.3431 11.6294 15.3431 11.416 15.3075 11.2026ZM11.9645 12.6607C11.8934 13.0164 11.8579 13.372 11.7512 13.7277C11.2533 15.328 10.1152 16.2171 8.44373 16.3594C7.83914 16.4305 7.19899 16.3949 6.59441 16.3238C4.92291 16.0749 3.96268 15.0435 3.53592 13.4787C3.25141 12.3762 3.25141 11.2382 3.57148 10.1357C3.99825 8.49978 5.24298 7.43286 6.95005 7.32617C7.66132 7.29061 8.3726 7.29061 9.08388 7.43286C10.7909 7.7885 11.8934 9.17549 12.0712 11.0604C12.0712 11.2738 12.1068 11.4516 12.1068 11.665C12.0357 11.7361 12.0001 12.3762 11.9645 12.6607Z" fill="white"/>
</svg>
