<svg width="26" height="26" viewBox="0 0 26 26" fill="none" xmlns="http://www.w3.org/2000/svg">
<path d="M14.7578 20.6172C17.375 20.1094 18.6836 18.8008 18.6836 16.6914C18.6836 14.3086 16.9258 12.668 13.4102 11.7695C11.2227 11.2227 10.1289 10.4219 10.1289 9.36719C10.1289 8.78125 10.3828 8.29297 10.8906 7.90234C11.4375 7.51172 12.1797 7.31641 13.1172 7.31641C14.875 7.31641 15.793 8.09766 15.8711 9.66016H18.332C18.2539 7.43359 17.0625 6.02734 14.7578 5.44141V2.98047H11.418V5.44141C10.2852 5.67578 9.34766 6.14453 8.60547 6.84766C7.90234 7.51172 7.55078 8.37109 7.55078 9.42578C7.55078 11.6133 9.28906 13.1367 12.7656 13.9961C14.9922 14.5039 16.1055 15.4023 16.1055 16.6914C16.1055 17.1992 15.8711 17.668 15.4023 18.0977C14.9727 18.4883 14.2109 18.6836 13.1172 18.6836C11.0469 18.6836 9.93359 17.9023 9.77734 16.3398H7.31641C7.43359 18.5664 8.80078 19.9727 11.418 20.5586V23.0195H14.7578V20.6172ZM4.15234 4.21094C6.61328 1.75 9.5625 0.519531 13 0.519531C16.4375 0.519531 19.3672 1.75 21.7891 4.21094C24.25 6.63281 25.4805 9.5625 25.4805 13C25.4805 16.4375 24.25 19.3867 21.7891 21.8477C19.3672 24.2695 16.4375 25.4805 13 25.4805C9.5625 25.4805 6.61328 24.2695 4.15234 21.8477C1.73047 19.3867 0.519531 16.4375 0.519531 13C0.519531 9.5625 1.73047 6.63281 4.15234 4.21094Z" fill="#188CCF"/>
</svg>
