<svg width="26" height="18" viewBox="0 0 26 18" fill="none" xmlns="http://www.w3.org/2000/svg">
<path d="M9.25 10.2305C10.1094 10.2305 11.1055 10.3477 12.2383 10.582C10.2461 11.6758 9.25 13.1211 9.25 14.918V17.7305H0.519531V14.625C0.519531 13.7266 1.04688 12.9258 2.10156 12.2227C3.19531 11.5195 4.38672 11.0117 5.67578 10.6992C6.96484 10.3867 8.15625 10.2305 9.25 10.2305ZM14.1133 12.457C15.6758 11.832 17.1797 11.5195 18.625 11.5195C20.0703 11.5195 21.5742 11.832 23.1367 12.457C24.6992 13.082 25.4805 13.9023 25.4805 14.918V17.7305H11.7695V14.918C11.7695 13.9023 12.5508 13.082 14.1133 12.457ZM11.8867 6.65625C11.1445 7.39844 10.2656 7.76953 9.25 7.76953C8.23438 7.76953 7.35547 7.39844 6.61328 6.65625C5.87109 5.91406 5.5 5.03516 5.5 4.01953C5.5 3.00391 5.87109 2.125 6.61328 1.38281C7.35547 0.640625 8.23438 0.269531 9.25 0.269531C10.2656 0.269531 11.1445 0.640625 11.8867 1.38281C12.6289 2.125 13 3.00391 13 4.01953C13 5.03516 12.6289 5.91406 11.8867 6.65625ZM20.793 8.12109C20.207 8.70703 19.4844 9 18.625 9C17.7656 9 17.0234 8.70703 16.3984 8.12109C15.8125 7.49609 15.5195 6.75391 15.5195 5.89453C15.5195 5.03516 15.8125 4.29297 16.3984 3.66797C17.0234 3.04297 17.7656 2.73047 18.625 2.73047C19.4844 2.73047 20.207 3.04297 20.793 3.66797C21.418 4.29297 21.7305 5.03516 21.7305 5.89453C21.7305 6.75391 21.418 7.49609 20.793 8.12109Z" fill="#188CCF"/>
</svg>
